<svg xmlns="http://www.w3.org/2000/svg" viewBox="0 0 512 512">
    <path d="M256.002 7h-.313c-.1 0-.2.02-.3.02C118.14 7.33 7 118.68 7 256c0 137.28 111.146 248.65 248.398 248.98.098 0 .195.02.293.02h.32C393.5 505 505 393.494 505 256 505 118.486 393.494 7 256.002 7zm9.955 149.01c26.398-.72 52.096-4.2 76.82-10.23 7.47 29.354 12.082 63.183 12.82 100.26h-89.64v-90.03zm0-19.92V28.497c26.865 7.43 54.06 43.225 71.395 98.122-22.995 5.54-46.864 8.77-71.395 9.47zM246.042 28.263v107.83c-24.724-.7-48.79-3.99-71.967-9.63 17.478-55.228 44.937-91.158 71.967-98.2zm0 127.73v90.047H155.79c.728-37.137 5.368-71.005 12.828-100.38 24.93 6.09 50.812 9.63 77.424 10.33zm-110.3 90.048H27.172c2.2-51.2 21.273-98.12 51.814-135.27 22.177 12.22 45.706 22.22 70.354 29.69-8.044 31.77-12.87 67.58-13.598 105.59zm0 19.92c.73 38 5.554 73.81 13.6 105.58-24.64 7.49-48.178 17.49-70.355 29.71-30.54-37.15-49.615-84.07-51.813-135.27h108.568zm20.047 0h90.25v89.94c-26.61.7-52.51 4.26-77.44 10.37-7.46-29.35-12.09-63.2-12.82-100.3zm90.25 109.84v107.94c-27.05-7.06-54.53-43.03-72-98.31 23.18-5.64 47.26-8.92 71.99-9.63zm19.91 107.72V375.79c24.53.7 48.4 3.95 71.41 9.493-17.34 54.936-44.55 90.788-71.42 98.22zm0-127.61v-89.94h89.64c-.74 37.04-5.35 70.83-12.78 100.17-24.77-6.03-50.45-9.53-76.86-10.23zm109.67-89.93h109.19c-2.2 51.2-21.26 98.11-51.8 135.26-22.36-12.29-46.09-22.37-70.95-29.88 8.03-31.73 12.84-67.46 13.56-105.38zm0-19.92c-.72-37.97-5.55-73.72-13.58-105.47 24.84-7.51 48.57-17.56 70.91-29.86 30.58 37.16 49.66 84.1 51.86 135.34H375.63zm43.62-150.55c-19.83 10.55-40.74 19.26-62.59 25.88-11.65-37.47-28-68.05-47.33-88.123 42.41 10.174 80.28 32.114 109.91 62.25zM201.87 33.44c-19.23 20.04-35.5 50.48-47.107 87.754-21.633-6.59-42.37-15.23-62.007-25.692 29.434-29.937 67.02-51.822 109.116-62.054zM92.69 416.43c19.657-10.485 40.404-19.122 62.056-25.717 11.6 37.31 27.87 67.794 47.12 87.85-42.13-10.25-79.73-32.156-109.18-62.133zm216.646 62.308c19.35-20.076 35.69-50.676 47.35-88.2 21.86 6.634 42.79 15.33 62.62 25.91-29.63 30.154-67.53 52.135-109.97 62.29z"/>
</svg>
