<?xml version="1.0" encoding="UTF-8" standalone="no"?>
<svg width="47px" height="39px" viewBox="0 0 47 39" version="1.1" xmlns="http://www.w3.org/2000/svg" xmlns:xlink="http://www.w3.org/1999/xlink" xmlns:sketch="http://www.bohemiancoding.com/sketch/ns">
    <!-- Generator: Sketch 3.4.2 (15857) - http://www.bohemiancoding.com/sketch -->
    <title>Корона</title>
    <desc>Created with Sketch.</desc>
    <defs></defs>
    <g id="Page-1-Copy" stroke="none" stroke-width="1" fill="none" fill-rule="evenodd" sketch:type="MSPage">
        <g id="Sample-Magazine" sketch:type="MSArtboardGroup" transform="translate(-56.000000, -1758.000000)" fill="#9B9B9B">
            <g id="Footer" sketch:type="MSLayerGroup" transform="translate(-9.000000, 1674.000000)">
                <path d="M107.849456,105.30122 C107.214468,106.394625 106.342021,107.066419 105.363558,107.814286 C103.465191,109.281183 101.179458,111.046178 100.865265,115.832161 L97.3139817,115.832161 C97.4592905,112.343526 98.269717,111.153436 99.681504,109.130653 C100.223604,108.28392 100.894187,107.298812 101.575522,106.019239 C103.01774,103.452173 103.340437,100.702429 102.640907,98.3603732 C105.254046,98.242639 107.161002,98.8537728 108.086208,100.15542 C108.960907,101.428805 108.866212,103.392347 107.849456,105.30122 L107.849456,105.30122 Z M93.1708176,115.832161 L90.9216714,115.832161 C91.0842981,110.147419 92.8578049,103.049577 92.6973131,98.0013639 C92.7550684,97.9670414 92.8017023,97.953439 92.8156892,97.8816941 C95.122861,97.0732187 97.0159115,97.2643686 98.0242384,98.480043 C99.1388172,99.7422776 99.1221284,101.891819 98.0242384,103.984853 C97.3737139,105.07252 96.7898438,105.933053 96.2485966,106.737258 C94.6424376,109.103731 93.3679367,110.987668 93.1708176,115.832161 L93.1708176,115.832161 Z M88.4357729,121.217301 L87.0152595,119.182914 L88.4357729,117.148528 L89.8562863,119.182914 L88.4357729,121.217301 Z M83.8191043,115.832161 C83.6222189,110.987668 82.3476546,109.103731 80.7413253,106.737258 C80.1993132,105.933053 79.6157692,105.07252 78.9656835,103.984853 C77.8683332,101.891819 77.8505783,99.7422776 78.9656835,98.480043 C79.9732343,97.2643686 81.8668523,97.0732187 84.1742327,97.8816941 C84.1889549,97.953439 84.2357094,97.9670414 84.2926088,98.0013639 C84.1333229,103.049577 85.9060893,110.147419 86.0682506,115.832161 L83.8191043,115.832161 Z M76.1246567,115.832161 C75.8117896,111.046178 73.5249282,109.281183 71.6263643,107.814286 C70.6480239,107.066419 69.7747226,106.394625 69.1404658,105.30122 C68.1234107,103.392347 68.0295456,101.428805 68.9037136,100.15542 C69.8286653,98.8537728 71.7361456,98.242639 74.349015,98.3603732 C73.6501608,100.702429 73.9714406,103.452173 75.4144,106.019239 C76.0955234,107.298812 76.7667179,108.28392 77.3084179,109.130653 C78.7210119,111.153436 79.5305088,112.343526 79.6759402,115.832161 L76.1246567,115.832161 Z M110.808859,98.2407034 C109.72304,96.7262499 106.995091,94.3195535 100.628513,95.248959 C98.5112519,93.1941492 95.2872252,92.6987514 91.7503042,93.9325915 C91.464285,93.2116029 91.0045381,92.6637244 90.4481669,92.2572146 C90.2572276,92.1545788 90.1263447,92.0593008 89.9746624,92.017875 C91.5146974,91.3637832 92.5854283,89.8754378 92.578937,88.1884422 C92.5854283,85.8492542 90.7542512,84 88.4357729,84 C86.2357146,84 84.4051291,85.8492542 84.4109849,88.1884422 C84.4051291,89.8754378 85.4758601,91.3637832 87.0152595,92.017875 C86.8626744,92.0593008 86.7323832,92.1545788 86.541755,92.2572146 C85.9849543,92.6637244 85.5252074,93.2116029 85.2396178,93.9325915 C81.7023855,92.6987514 78.4788322,93.1941492 76.361409,95.248959 C69.9954669,94.3195535 67.2665704,96.7262499 66.1810629,98.2407034 C64.576844,100.60324 64.59779,103.941796 66.299439,106.976597 C67.2020756,108.711555 68.4936271,109.712034 69.6139703,110.56669 C71.2893851,111.879878 72.5341927,112.848199 72.8101255,115.95183 L71.8631165,115.95183 L71.8631165,122.892677 L88.4357729,122.892677 L105.126805,122.892677 L105.126805,115.95183 L104.179796,115.95183 C104.455773,112.848199 105.700226,111.879878 107.375952,110.56669 C108.49551,109.712034 109.788482,108.711555 110.690483,106.976597 C112.392176,103.941796 112.412767,100.60324 110.808859,98.2407034 L110.808859,98.2407034 Z" id="Корона" sketch:type="MSShapeGroup"></path>
            </g>
        </g>
    </g>
</svg>