<svg xmlns="http://www.w3.org/2000/svg" viewBox="0 0 47 39">
    <path fill-rule="evenodd" d="M42.85 21.3c-.636 1.095-1.508 1.766-2.486 2.514-1.9 1.467-4.185 3.232-4.5 8.018h-3.55c.145-3.488.956-4.68 2.368-6.7.542-.848 1.212-1.833 1.894-3.113 1.442-2.57 1.764-5.32 1.065-7.66 2.62-.12 4.52.49 5.45 1.79.88 1.27.78 3.23-.23 5.14zM28.17 31.833h-2.248c.162-5.685 1.936-12.782 1.775-17.83.058-.035.105-.05.12-.12 2.306-.81 4.2-.618 5.207.598 1.115 1.27 1.098 3.42 0 5.51-.65 1.09-1.234 1.95-1.775 2.75-1.61 2.37-2.89 4.25-3.08 9.1zm-4.734 5.385l-1.42-2.034 1.42-2.034 1.42 2.033-1.42 2.034zm-4.617-5.385c-.2-4.844-1.48-6.728-3.08-9.095-.54-.804-1.13-1.664-1.78-2.752-1.1-2.093-1.12-4.243 0-5.505 1-1.21 2.9-1.4 5.21-.59.01.07.06.09.12.12-.16 5.05 1.61 12.15 1.77 17.83h-2.25zm-7.7 0c-.32-4.786-2.6-6.55-4.5-8.018-.98-.748-1.85-1.42-2.49-2.513-1.02-1.908-1.11-3.87-.24-5.145.92-1.3 2.83-1.912 5.44-1.795-.7 2.342-.38 5.092 1.063 7.66.68 1.28 1.352 2.264 1.893 3.11 1.412 2.023 2.222 3.214 2.367 6.702h-3.55zm34.68-17.59c-1.09-1.516-3.82-3.922-10.18-2.993-2.12-2.056-5.35-2.55-8.88-1.317-.29-.72-.75-1.27-1.31-1.676-.19-.102-.32-.198-.47-.24 1.54-.653 2.61-2.142 2.6-3.83C27.582 1.85 25.752 0 23.432 0c-2.2 0-4.03 1.85-4.023 4.188-.01 1.687 1.06 3.176 2.6 3.83-.15.04-.287.137-.477.24-.557.406-1.017.954-1.3 1.675-3.54-1.234-6.76-.74-8.88 1.316-6.367-.93-9.095 1.47-10.18 2.99-1.605 2.36-1.584 5.7.12 8.73.9 1.73 2.192 2.73 3.312 3.59 1.674 1.31 2.92 2.28 3.195 5.38h-.95v6.94h33.27v-6.94h-.945c.275-3.11 1.52-4.07 3.195-5.39 1.12-.857 2.412-1.857 3.314-3.59 1.7-3.037 1.722-6.376.12-8.738z"/>
</svg>
